<?xml version="1.0" standalone="no"?>
<!DOCTYPE svg PUBLIC "-//W3C//DTD SVG 20010904//EN"
 "http://www.w3.org/TR/2001/REC-SVG-20010904/DTD/svg10.dtd">
<svg version="1.0" xmlns="http://www.w3.org/2000/svg"
 width="96.000000pt" height="96.000000pt" viewBox="0 0 96.000000 96.000000"
 preserveAspectRatio="xMidYMid meet">
<metadata>
Created by potrace 1.14, written by Peter Selinger 2001-2017
</metadata>
<g transform="translate(0.000000,96.000000) scale(0.100000,-0.100000)"
fill="#000000" stroke="none">
<path d="M161 856 c-5 -6 -43 -136 -86 -289 l-77 -277 97 -99 97 -98 93 1 c51
1 95 3 98 6 2 3 12 29 22 58 12 39 20 51 28 43 6 -6 31 -11 57 -11 42 -1 48
-4 82 -49 l37 -48 113 1 113 1 26 115 c15 63 43 186 64 273 l37 157 -66 114
-66 113 -109 -1 c-60 -1 -113 -5 -118 -9 -4 -5 -13 -25 -18 -45 -9 -33 -14
-37 -48 -40 -20 -2 -37 -7 -37 -13 0 -22 -20 -5 -51 44 -18 28 -35 54 -37 57
-8 11 -242 7 -251 -4z"/>
</g>
</svg>
